<svg xmlns="http://www.w3.org/2000/svg" version="1.0" viewBox="1990 540 3950 1170"
                                    height="30" fill="white">
                                    <path fill-opacity=".1"
                                        d="M2497.8 550.7c.7.3 1.6.2 1.9-.1.4-.3-.2-.6-1.3-.5-1.1 0-1.4.3-.6.6m65 0c.7.3 1.6.2 1.9-.1.4-.3-.2-.6-1.3-.5-1.1 0-1.4.3-.6.6m-31.5 286c2.6.2 6.7.2 9 0s.2-.3-4.8-.3c-4.9 0-6.8.1-4.2.3m1829.5 50c.7.3 1.6.2 1.9-.1.4-.3-.2-.6-1.3-.5-1.1 0-1.4.3-.6.6m37 0c.7.3 1.6.2 1.9-.1.4-.3-.2-.6-1.3-.5-1.1 0-1.4.3-.6.6m-1084.4 65.5-1.9 2.3 2.3-1.9c2.1-1.8 2.7-2.6 1.9-2.6-.2 0-1.2 1-2.3 2.2m-6 6-1.9 2.3 2.3-1.9c2.1-1.8 2.7-2.6 1.9-2.6-.2 0-1.2 1-2.3 2.2m877 2-1.9 2.3 2.3-1.9c2.1-1.8 2.7-2.6 1.9-2.6-.2 0-1.2 1-2.3 2.2m-1654.5 7.5c-1.3 1.6-1.2 1.7.4.4s2.1-2.1 1.3-2.1c-.2 0-1 .8-1.7 1.7m1046.1 62.7c0 .2.8 1 1.8 1.7 1.5 1.3 1.6 1.2.3-.4s-2.1-2.1-2.1-1.3m885 2c0 .2.8 1 1.8 1.7 1.5 1.3 1.6 1.2.3-.4s-2.1-2.1-2.1-1.3m5 5c0 .2.8 1 1.8 1.7 1.5 1.3 1.6 1.2.3-.4s-2.1-2.1-2.1-1.3m458.9 16.3-3.4 3.8 3.8-3.4c3.4-3.3 4.2-4.1 3.4-4.1-.2 0-1.9 1.7-3.8 3.7m-2938.7 9.3c0 1.4.2 1.9.5 1.2.2-.6.2-1.8 0-2.5-.3-.6-.5-.1-.5 1.3m208.9 8.6c0 1.1.3 1.4.6.6.3-.7.2-1.6-.1-1.9-.3-.4-.6.2-.5 1.3m740.7.1c1.8.2 4.5.2 6 0s0-.4-3.3-.4-4.5.2-2.7.4m11 0c1.2.2 3 .2 4 0 .9-.3-.1-.5-2.3-.4-2.2 0-3 .2-1.7.4m809.7 202.3c0 110.3.1 155.4.2 100.2.2-55.1.2-145.3 0-200.5-.1-55.1-.2-10-.2 100.3m-660.3-190.4c1.5 1.8 1.8 4.9 2.1 25l.2 22.9.3-23.1c.2-22.8.2-23.1-2-25-2.3-1.9-2.3-1.9-.6.2m-1111 6.4c0 1.4.2 1.9.5 1.2.2-.6.2-1.8 0-2.5-.3-.6-.5-.1-.5 1.3m209 3c0 1.4.2 1.9.5 1.2.2-.6.2-1.8 0-2.5-.3-.6-.5-.1-.5 1.3m-.1 22.6c0 1.1.3 1.4.6.6.3-.7.2-1.6-.1-1.9-.3-.4-.6.2-.5 1.3m691.1.9c0 1.6.2 2.2.5 1.2.2-.9.2-2.3 0-3-.3-.6-.5.1-.5 1.8m-900 1.5c0 1.9.2 2.7.5 1.7.2-.9.2-2.5 0-3.5-.3-.9-.5-.1-.5 1.8m210 19c0 1.4.2 1.9.5 1.2.2-.6.2-1.8 0-2.5-.3-.6-.5-.1-.5 1.3m-209 6c0 1.4.2 1.9.5 1.2.2-.6.2-1.8 0-2.5-.3-.6-.5-.1-.5 1.3m896 24c0 1.4.2 1.9.5 1.2.2-.6.2-1.8 0-2.5-.3-.6-.5-.1-.5 1.3m1772.2 28.5c0 15.9.2 22.3.3 14.2.2-8.2.2-21.2 0-29-.1-7.8-.3-1.2-.3 14.8m-552.3-25.9c0 1.1.3 1.4.6.6.3-.7.2-1.6-.1-1.9-.3-.4-.6.2-.5 1.3m-1765.3 9.1c.7.3 1.6.2 1.9-.1.4-.3-.2-.6-1.3-.5-1.1 0-1.4.3-.6.6m295.1 2c-1.3 1.6-1.2 1.7.4.4.9-.7 1.7-1.5 1.7-1.7 0-.8-.8-.3-2.1 1.3m-255.1 0c.6.2 1.8.2 2.5 0 .6-.3.1-.5-1.3-.5s-1.9.2-1.2.5m52 2c1.2.2 3 .2 4 0 .9-.3-.1-.5-2.3-.4-2.2 0-3 .2-1.7.4m-106 20c.6.2 1.8.2 2.5 0 .6-.3.1-.5-1.3-.5s-1.9.2-1.2.5m1779.3 1.9c0 1.1.3 1.4.6.6.3-.7.2-1.6-.1-1.9-.3-.4-.6.2-.5 1.3m-1747.3.1c.7.3 1.6.2 1.9-.1.4-.3-.2-.6-1.3-.5-1.1 0-1.4.3-.6.6m94 6c.7.3 1.6.2 1.9-.1.4-.3-.2-.6-1.3-.5-1.1 0-1.4.3-.6.6m30 2c.7.3 1.6.2 1.9-.1.4-.3-.2-.6-1.3-.5-1.1 0-1.4.3-.6.6m264.1 66c-1.3 1.6-1.2 1.7.4.4s2.1-2.1 1.3-2.1c-.2 0-1 .8-1.7 1.7m1787.6 19c67.7.7 119.3.7 118.8 0-.2-.4-32.9-.6-72.6-.5-39.7.2-60.5.4-46.2.5m-46.6 34c-1.3 1.6-1.2 1.7.4.4s2.1-2.1 1.3-2.1c-.2 0-1 .8-1.7 1.7m-1979.1 40c.6.2 1.8.2 2.5 0 .6-.3.1-.5-1.3-.5s-1.9.2-1.2.5m2075.1 48c-1.3 1.6-1.2 1.7.4.4s2.1-2.1 1.3-2.1c-.2 0-1 .8-1.7 1.7M3099.4 1486c0 11.3.2 15.9.3 10.2.2-5.6.2-14.8 0-20.5-.1-5.6-.3-1-.3 10.3m323.9-2.3c1.5.2 3.7.2 5 0 1.2-.2 0-.4-2.8-.4-2.7 0-3.8.2-2.2.4m-495.9 72.3c0 10.7.2 15.1.3 9.7.2-5.3.2-14.1 0-19.5-.1-5.3-.3-.9-.3 9.8m130.4 57.7c.6.2 1.8.2 2.5 0 .6-.3.1-.5-1.3-.5s-1.9.2-1.2.5m-102 1c.7.3 1.6.2 1.9-.1.4-.3-.2-.6-1.3-.5-1.1 0-1.4.3-.6.6m44.5 0c1.5.2 3.7.2 5 0 1.2-.2 0-.4-2.8-.4-2.7 0-3.8.2-2.2.4m-496.5 35c.7.3 1.6.2 1.9-.1.4-.3-.2-.6-1.3-.5-1.1 0-1.4.3-.6.6" />
                                    <path fill-opacity=".2"
                                        d="M2559.8 550.7c.7.3 1.6.2 1.9-.1.4-.3-.2-.6-1.3-.5-1.1 0-1.4.3-.6.6m20 1c.7.3 1.6.2 1.9-.1.4-.3-.2-.6-1.3-.5-1.1 0-1.4.3-.6.6m-415.9 140c-1.3 1.6-1.2 1.7.4.4s2.1-2.1 1.3-2.1c-.2 0-1 .8-1.7 1.7m1696.6 394.8c0 213.4.1 300.6.2 193.7.2-106.9.2-281.5 0-388-.1-106.5-.2-19.1-.2 194.3m1278 0c0 213.4.1 300.6.2 193.7.2-106.9.2-281.5 0-388-.1-106.5-.2-19.1-.2 194.3M3491.8 886.7c.7.3 1.6.2 1.9-.1.4-.3-.2-.6-1.3-.5-1.1 0-1.4.3-.6.6m37 0c.7.3 1.6.2 1.9-.1.4-.3-.2-.6-1.3-.5-1.1 0-1.4.3-.6.6m-478.9 14c-1.3 1.6-1.2 1.7.4.4.9-.7 1.7-1.5 1.7-1.7 0-.8-.8-.3-2.1 1.3m-29.1 6c.7.3 1.6.2 1.9-.1.4-.3-.2-.6-1.3-.5-1.1 0-1.4.3-.6.6m-440.9 8-2.4 2.8 2.8-2.4c2.5-2.3 3.2-3.1 2.4-3.1-.2 0-1.4 1.2-2.8 2.7m2354 7-2.4 2.8 2.8-2.4c2.5-2.3 3.2-3.1 2.4-3.1-.2 0-1.4 1.2-2.8 2.7m-2369 9c-1.3 1.6-1.2 1.7.4.4s2.1-2.1 1.3-2.1c-.2 0-1 .8-1.7 1.7m857.5 104.5-1.9 2.3 2.3-1.9c2.1-1.8 2.7-2.6 1.9-2.6-.2 0-1.2 1-2.3 2.2M1986.2 1067c0 1.4.2 1.9.5 1.2.2-.6.2-1.8 0-2.5-.3-.6-.5-.1-.5 1.3m968.6 4.7c1.8.2 4.5.2 6 0s0-.4-3.3-.4-4.5.2-2.7.4m-760.6 17.3c0 1.4.2 1.9.5 1.2.2-.6.2-1.8 0-2.5-.3-.6-.5-.1-.5 1.3m-.1 29.6c0 1.1.3 1.4.6.6.3-.7.2-1.6-.1-1.9-.3-.4-.6.2-.5 1.3m691 2c0 1.1.3 1.4.6.6.3-.7.2-1.6-.1-1.9-.3-.4-.6.2-.5 1.3m213.3 36.9c0 14.8.2 21.1.3 13.8.2-7.2.2-19.4 0-27-.1-7.6-.3-1.7-.3 13.2M1986.2 1139c0 1.4.2 1.9.5 1.2.2-.6.2-1.8 0-2.5-.3-.6-.5-.1-.5 1.3m2115.9 33.6c0 1.1.3 1.4.6.6.3-.7.2-1.6-.1-1.9-.3-.4-.6.2-.5 1.3m-1762.3 6.1c.7.3 1.6.2 1.9-.1.4-.3-.2-.6-1.3-.5-1.1 0-1.4.3-.6.6m20 1c.7.3 1.6.2 1.9-.1.4-.3-.2-.6-1.3-.5-1.1 0-1.4.3-.6.6m21 1c.7.3 1.6.2 1.9-.1.4-.3-.2-.6-1.3-.5-1.1 0-1.4.3-.6.6m24 1c.7.3 1.6.2 1.9-.1.4-.3-.2-.6-1.3-.5-1.1 0-1.4.3-.6.6m30 1c.6.2 1.8.2 2.5 0 .6-.3.1-.5-1.3-.5s-1.9.2-1.2.5m1667.3 18.9c0 1.1.3 1.4.6.6.3-.7.2-1.6-.1-1.9-.3-.4-.6.2-.5 1.3m-1639.3 10.1c.7.3 1.6.2 1.9-.1.4-.3-.2-.6-1.3-.5-1.1 0-1.4.3-.6.6m925.3 88.9c0 1.1.3 1.4.6.6.3-.7.2-1.6-.1-1.9-.3-.4-.6.2-.5 1.3M2281 1344.4c0 .2.8 1 1.8 1.7 1.5 1.3 1.6 1.2.3-.4s-2.1-2.1-2.1-1.3m227.8 27.3c.6.2 1.8.2 2.5 0 .6-.3.1-.5-1.3-.5s-1.9.2-1.2.5m53.5 0c.9.2 2.3.2 3 0 .6-.3-.1-.5-1.8-.5-1.6 0-2.2.2-1.2.5m537.1 154.3c0 11.3.2 15.9.3 10.2.2-5.6.2-14.8 0-20.5-.1-5.6-.3-1-.3 10.3m-172.1 6.5c0 2.7.2 3.8.4 2.2.2-1.5.2-3.7 0-5-.2-1.2-.4 0-.4 2.8m127.5 81.2c.7.3 1.6.2 1.9-.1.4-.3-.2-.6-1.3-.5-1.1 0-1.4.3-.6.6m-96 1c.6.2 1.8.2 2.5 0 .6-.3.1-.5-1.3-.5s-1.9.2-1.2.5m33 0c1.2.2 3.2.2 4.5 0 1.2-.2.2-.4-2.3-.4s-3.5.2-2.2.4" />
                                    <path fill-opacity=".3"
                                        d="M2502.8 550.7c.6.2 1.8.2 2.5 0 .6-.3.1-.5-1.3-.5s-1.9.2-1.2.5m54 0c.7.3 1.6.2 1.9-.1.4-.3-.2-.6-1.3-.5-1.1 0-1.4.3-.6.6m-408.9 156c-1.3 1.6-1.2 1.7.4.4s2.1-2.1 1.3-2.1c-.2 0-1 .8-1.7 1.7m-4 4c-1.3 1.6-1.2 1.7.4.4.9-.7 1.7-1.5 1.7-1.7 0-.8-.8-.3-2.1 1.3m390.4 36c2 .2 5.4.2 7.5 0 2-.2.3-.4-3.8-.4s-5.8.2-3.7.4M2796 858.4c0 .2.8 1 1.8 1.7 1.5 1.3 1.6 1.2.3-.4s-2.1-2.1-2.1-1.3m698.8 28.3c.7.3 1.6.2 1.9-.1.4-.3-.2-.6-1.3-.5-1.1 0-1.4.3-.6.6m31 0c.7.3 1.6.2 1.9-.1.4-.3-.2-.6-1.3-.5-1.1 0-1.4.3-.6.6m867 0c.7.3 1.6.2 1.9-.1.4-.3-.2-.6-1.3-.5-1.1 0-1.4.3-.6.6m677.7 74.8c0 37.9.1 53.3.2 34.2.2-19.2.2-50.2 0-69-.1-18.8-.2-3.2-.2 34.8m-2052.7-54.8c.7.3 1.6.2 1.9-.1.4-.3-.2-.6-1.3-.5-1.1 0-1.4.3-.6.6m1874 92c.7.3 1.6.2 1.9-.1.4-.3-.2-.6-1.3-.5-1.1 0-1.4.3-.6.6m-1926 73c1.8.2 4.5.2 6 0s0-.4-3.3-.4-4.5.2-2.7.4m101 0c.7.3 1.6.2 1.9-.1.4-.3-.2-.6-1.3-.5-1.1 0-1.4.3-.6.6m-872.7 49.9c0 1.1.3 1.4.6.6.3-.7.2-1.6-.1-1.9-.3-.4-.6.2-.5 1.3m691.1 2.9c0 1.6.2 2.2.5 1.2.2-.9.2-2.3 0-3-.3-.6-.5.1-.5 1.8m1217 52.5c0 1.9.2 2.7.5 1.7.2-.9.2-2.5 0-3.5-.3-.9-.5-.1-.5 1.8m-1694.4 4.7c.7.3 1.6.2 1.9-.1.4-.3-.2-.6-1.3-.5-1.1 0-1.4.3-.6.6m31.5 1c.9.2 2.3.2 3 0 .6-.3-.1-.5-1.8-.5-1.6 0-2.2.2-1.2.5m659.1 14.8c0 7.7.2 10.7.3 6.7.2-4 .2-10.3 0-14s-.3-.4-.3 7.3m1003.8-.5c0 1.9.2 2.7.5 1.7.2-.9.2-2.5 0-3.5-.3-.9-.5-.1-.5 1.8m-1672.4 12.7c.7.3 1.6.2 1.9-.1.4-.3-.2-.6-1.3-.5-1.1 0-1.4.3-.6.6m958.3 87.9c0 1.1.3 1.4.6.6.3-.7.2-1.6-.1-1.9-.3-.4-.6.2-.5 1.3m0 6c0 1.1.3 1.4.6.6.3-.7.2-1.6-.1-1.9-.3-.4-.6.2-.5 1.3m-676.2 6.1c-1.3 1.6-1.2 1.7.4.4.9-.7 1.7-1.5 1.7-1.7 0-.8-.8-.3-2.1 1.3m1585.6 24.3c1 1.1 2 2 2.3 2s-.3-.9-1.3-2-2-2-2.3-2 .3.9 1.3 2m-892.5 10.5c1.3 1.4 2.6 2.5 2.8 2.5.3 0-.5-1.1-1.8-2.5s-2.6-2.5-2.8-2.5c-.3 0 .5 1.1 1.8 2.5m69.8 24.2c1.8.2 4.5.2 6 0s0-.4-3.3-.4-4.5.2-2.7.4m911.5 0c1.5.2 3.9.2 5.5 0 1.5-.2.2-.4-2.8-.4s-4.3.2-2.7.4m-1873.5 3c.6.2 1.8.2 2.5 0 .6-.3.1-.5-1.3-.5s-1.9.2-1.2.5m45 0c.6.2 1.8.2 2.5 0 .6-.3.1-.5-1.3-.5s-1.9.2-1.2.5m2026.1 44c-1.3 1.6-1.2 1.7.4.4s2.1-2.1 1.3-2.1c-.2 0-1 .8-1.7 1.7m-218.1 70c.7.3 1.6.2 1.9-.1.4-.3-.2-.6-1.3-.5-1.1 0-1.4.3-.6.6m-1438.7 34.9c0 1.1.3 1.4.6.6.3-.7.2-1.6-.1-1.9-.3-.4-.6.2-.5 1.3m.1 4.9c0 1.6.2 2.2.5 1.2.2-.9.2-2.3 0-3-.3-.6-.5.1-.5 1.8m172.2 40.5c0 11.3.2 15.9.3 10.2.2-5.6.2-14.8 0-20.5-.1-5.6-.3-1-.3 10.3m-53.6 47.7c.7.3 1.6.2 1.9-.1.4-.3-.2-.6-1.3-.5-1.1 0-1.4.3-.6.6m4.5 0c.9.2 2.3.2 3 0 .6-.3-.1-.5-1.8-.5-1.6 0-2.2.2-1.2.5m-81.5 1c3.9.2 10.5.2 14.5 0 3.9-.1.7-.3-7.3-.3s-11.2.2-7.2.3" />
                                    <path fill-opacity=".5"
                                        d="M2550.8 550.7c.7.3 1.6.2 1.9-.1.4-.3-.2-.6-1.3-.5-1.1 0-1.4.3-.6.6m23 1c.7.3 1.6.2 1.9-.1.4-.3-.2-.6-1.3-.5-1.1 0-1.4.3-.6.6m-49 195c.7.3 1.6.2 1.9-.1.4-.3-.2-.6-1.3-.5-1.1 0-1.4.3-.6.6m977 140c1.2.2 3.2.2 4.5 0 1.2-.2.2-.4-2.3-.4s-3.5.2-2.2.4m14 0c1.2.2 3.2.2 4.5 0 1.2-.2.2-.4-2.3-.4s-3.5.2-2.2.4m855 0c1.2.2 3.2.2 4.5 0 1.2-.2.2-.4-2.3-.4s-3.5.2-2.2.4m13 0c1.2.2 3.2.2 4.5 0 1.2-.2.2-.4-2.3-.4s-3.5.2-2.2.4m636 0c.6.2 1.8.2 2.5 0 .6-.3.1-.5-1.3-.5s-1.9.2-1.2.5m8.5 0c.9.2 2.3.2 3 0 .6-.3-.1-.5-1.8-.5-1.6 0-2.2.2-1.2.5m-2020 20c.9.2 2.5.2 3.5 0 .9-.3.1-.5-1.8-.5s-2.7.2-1.7.5m696.7 46.8c1.3 1.4 2.6 2.5 2.8 2.5.3 0-.5-1.1-1.8-2.5s-2.6-2.5-2.8-2.5c-.3 0 .5 1.1 1.8 2.5m867 3.8c0 .2 1.5 1.6 3.3 3.3l3.2 2.9-2.9-3.3c-2.8-3-3.6-3.7-3.6-2.9m-191.7 46.4c1.5.2 3.7.2 5 0 1.2-.2 0-.4-2.8-.4-2.7 0-3.8.2-2.2.4m-1392.5 68c2.3.2 5.9.2 8 0 2-.2.1-.4-4.3-.4s-6.1.2-3.7.4m72.5 0c.9.2 2.3.2 3 0 .6-.3-.1-.5-1.8-.5-1.6 0-2.2.2-1.2.5m-171 1c.9.2 2.3.2 3 0 .6-.3-.1-.5-1.8-.5-1.6 0-2.2.2-1.2.5m405.5 3c20 .2 52.4.2 72 0 19.6-.1 3.3-.2-36.3-.2s-55.7.1-35.7.2m-407.7 2.9c0 1.1.3 1.4.6.6.3-.7.2-1.6-.1-1.9-.3-.4-.6.2-.5 1.3m-473.3 103.1c.7.3 1.6.2 1.9-.1.4-.3-.2-.6-1.3-.5-1.1 0-1.4.3-.6.6m860.1 18-3.4 3.8 3.8-3.4c3.4-3.3 4.2-4.1 3.4-4.1-.2 0-1.9 1.7-3.8 3.7m-969.1 3c.6.2 1.8.2 2.5 0 .6-.3.1-.5-1.3-.5s-1.9.2-1.2.5m7 0c.6.2 1.8.2 2.5 0 .6-.3.1-.5-1.3-.5s-1.9.2-1.2.5m786.6 48.3c0 7.4.1 10.5.3 6.7.2-3.7.2-9.7 0-13.5-.2-3.7-.3-.6-.3 6.8m-366.5 38.7c-1.3 1.6-1.2 1.7.4.4.9-.7 1.7-1.5 1.7-1.7 0-.8-.8-.3-2.1 1.3m500.4 19.3c0 3.6.2 5 .4 3.2.2-1.7.2-4.7 0-6.5-.2-1.7-.4-.3-.4 3.3m235.5 59.7c.7.3 1.6.2 1.9-.1.4-.3-.2-.6-1.3-.5-1.1 0-1.4.3-.6.6m912 0c.7.3 1.6.2 1.9-.1.4-.3-.2-.6-1.3-.5-1.1 0-1.4.3-.6.6m-1857 3c1.2.2 3.2.2 4.5 0 1.2-.2.2-.4-2.3-.4s-3.5.2-2.2.4m25 0c1.2.2 3 .2 4 0 .9-.3-.1-.5-2.3-.4-2.2 0-3 .2-1.7.4m-6.5 88c.9.2 2.3.2 3 0 .6-.3-.1-.5-1.8-.5-1.6 0-2.2.2-1.2.5m1860.5 26c.7.3 1.6.2 1.9-.1.4-.3-.2-.6-1.3-.5-1.1 0-1.4.3-.6.6M2158 1508.4c0 .2.8 1 1.8 1.7 1.5 1.3 1.6 1.2.3-.4s-2.1-2.1-2.1-1.3m3372.9 16.3c-1.3 1.6-1.2 1.7.4.4s2.1-2.1 1.3-2.1c-.2 0-1 .8-1.7 1.7m-2431.6 67.8c0 3.3.2 4.5.4 2.7s.2-4.5 0-6-.4 0-.4 3.3m2574.6 10.2-3.4 3.8 3.8-3.4c2-1.9 3.7-3.6 3.7-3.8 0-.8-.8 0-4.1 3.4m-2638.6 11c.9.2 2.5.2 3.5 0 .9-.3.1-.5-1.8-.5s-2.7.2-1.7.5m-468.5 36c.7.3 1.6.2 1.9-.1.4-.3-.2-.6-1.3-.5-1.1 0-1.4.3-.6.6" />
                                    <path fill-opacity=".4"
                                        d="M2553.8 550.7c.7.3 1.6.2 1.9-.1.4-.3-.2-.6-1.3-.5-1.1 0-1.4.3-.6.6M2908 679.4c0 .2.8 1 1.8 1.7 1.5 1.3 1.6 1.2.3-.4s-2.1-2.1-2.1-1.3m-380.2 67.3c.6.2 1.8.2 2.5 0 .6-.3.1-.5-1.3-.5s-1.9.2-1.2.5m18.5 0c.9.2 2.3.2 3 0 .6-.3-.1-.5-1.8-.5-1.6 0-2.2.2-1.2.5m-236.4 91c-1.3 1.6-1.2 1.7.4.4s2.1-2.1 1.3-2.1c-.2 0-1 .8-1.7 1.7m1187.9 49c.7.3 1.6.2 1.9-.1.4-.3-.2-.6-1.3-.5-1.1 0-1.4.3-.6.6m25 0c.7.3 1.6.2 1.9-.1.4-.3-.2-.6-1.3-.5-1.1 0-1.4.3-.6.6m-509 20c.6.2 1.8.2 2.5 0 .6-.3.1-.5-1.3-.5s-1.9.2-1.2.5m-437.9 12c-1.3 1.6-1.2 1.7.4.4.9-.7 1.7-1.5 1.7-1.7 0-.8-.8-.3-2.1 1.3m-14 15c-1.3 1.6-1.2 1.7.4.4s2.1-2.1 1.3-2.1c-.2 0-1 .8-1.7 1.7m-21 22c-1.3 1.6-1.2 1.7.4.4s2.1-2.1 1.3-2.1c-.2 0-1 .8-1.7 1.7m2037.1 7.7c0 .2.8 1 1.8 1.7 1.5 1.3 1.6 1.2.3-.4s-2.1-2.1-2.1-1.3m-2032.1 24.3c-1.3 1.6-1.2 1.7.4.4.9-.7 1.7-1.5 1.7-1.7 0-.8-.8-.3-2.1 1.3m430.4 84c1.5.2 3.9.2 5.5 0 1.5-.2.2-.4-2.8-.4s-4.3.2-2.7.4m-89.2 3.9c0 1.1.3 1.4.6.6.3-.7.2-1.6-.1-1.9-.3-.4-.6.2-.5 1.3m-693 9c0 1.1.3 1.4.6.6.3-.7.2-1.6-.1-1.9-.3-.4-.6.2-.5 1.3m87 9c0 1.1.3 1.4.6.6.3-.7.2-1.6-.1-1.9-.3-.4-.6.2-.5 1.3m-295.9 17.9c0 1.6.2 2.2.5 1.2.2-.9.2-2.3 0-3-.3-.6-.5.1-.5 1.8m899.9 17.1c0 1.1.3 1.4.6.6.3-.7.2-1.6-.1-1.9-.3-.4-.6.2-.5 1.3m-541.3 50.1c.7.3 1.6.2 1.9-.1.4-.3-.2-.6-1.3-.5-1.1 0-1.4.3-.6.6m20 1c.7.3 1.6.2 1.9-.1.4-.3-.2-.6-1.3-.5-1.1 0-1.4.3-.6.6m22 1c.7.3 1.6.2 1.9-.1.4-.3-.2-.6-1.3-.5-1.1 0-1.4.3-.6.6m1716.4 2.3c0 1.9.2 2.7.5 1.7.2-.9.2-2.5 0-3.5-.3-.9-.5-.1-.5 1.8m-1691.4-1.3c.7.3 1.6.2 1.9-.1.4-.3-.2-.6-1.3-.5-1.1 0-1.4.3-.6.6m34.9 1c1.8.2 5 .2 7 0 2.1-.2.7-.4-3.2-.4-3.8 0-5.5.2-3.8.4m1656.5 8.3c0 1.9.2 2.7.5 1.7.2-.9.2-2.5 0-3.5-.3-.9-.5-.1-.5 1.8m-1786.4 11.7c.7.3 1.6.2 1.9-.1.4-.3-.2-.6-1.3-.5-1.1 0-1.4.3-.6.6m128 8c.7.3 1.6.2 1.9-.1.4-.3-.2-.6-1.3-.5-1.1 0-1.4.3-.6.6m654.6 13.8c0 7.7.2 10.7.3 6.7.2-4 .2-10.3 0-14s-.3-.4-.3 7.3m-747.4 68.9c0 .2.8 1 1.8 1.7 1.5 1.3 1.6 1.2.3-.4s-2.1-2.1-2.1-1.3m881.1 8.2c0 1.1.3 1.4.6.6.3-.7.2-1.6-.1-1.9-.3-.4-.6.2-.5 1.3m-568.2 39.1c-1.3 1.6-1.2 1.7.4.4.9-.7 1.7-1.5 1.7-1.7 0-.8-.8-.3-2.1 1.3m1730.9 28c.6.2 1.8.2 2.5 0 .6-.3.1-.5-1.3-.5s-1.9.2-1.2.5m-1877.5 3c.9.2 2.3.2 3 0 .6-.3-.1-.5-1.8-.5-1.6 0-2.2.2-1.2.5m36.5 0c.6.2 1.8.2 2.5 0 .6-.3.1-.5-1.3-.5s-1.9.2-1.2.5m2034.1 40-2.4 2.8 2.8-2.4c2.5-2.3 3.2-3.1 2.4-3.1-.2 0-1.4 1.2-2.8 2.7m-1660.8 105.9c0 1.1.3 1.4.6.6.3-.7.2-1.6-.1-1.9-.3-.4-.6.2-.5 1.3m113.7 96.1c.6.2 1.8.2 2.5 0 .6-.3.1-.5-1.3-.5s-1.9.2-1.2.5m-530 36c.7.3 1.6.2 1.9-.1.4-.3-.2-.6-1.3-.5-1.1 0-1.4.3-.6.6m59 0c.7.3 1.6.2 1.9-.1.4-.3-.2-.6-1.3-.5-1.1 0-1.4.3-.6.6" />
                                    <path fill-opacity=".6"
                                        d="M2513.3 550.7c.9.2 2.3.2 3 0 .6-.3-.1-.5-1.8-.5-1.6 0-2.2.2-1.2.5m29 0c.9.2 2.3.2 3 0 .6-.3-.1-.5-1.8-.5-1.6 0-2.2.2-1.2.5m5.5 0c.7.3 1.6.2 1.9-.1.4-.3-.2-.6-1.3-.5-1.1 0-1.4.3-.6.6M2924 694.4c0 .2.8 1 1.8 1.7 1.5 1.3 1.6 1.2.3-.4s-2.1-2.1-2.1-1.3m1093.5 392.1c0 213.4.1 300.6.2 193.7.2-106.9.2-281.5 0-388-.1-106.5-.2-19.1-.2 194.3m1278 0c0 213.4.1 300.6.2 193.7.2-106.9.2-281.5 0-388-.1-106.5-.2-19.1-.2 194.3M2552.8 746.7c.7.3 1.6.2 1.9-.1.4-.3-.2-.6-1.3-.5-1.1 0-1.4.3-.6.6m2 91c.7.3 1.6.2 1.9-.1.4-.3-.2-.6-1.3-.5-1.1 0-1.4.3-.6.6m246.7 26.3c1 1.1 2 2 2.3 2s-.3-.9-1.3-2-2-2-2.3-2 .3.9 1.3 2m707.8 22.7c.9.2 2.5.2 3.5 0 .9-.3.1-.5-1.8-.5s-2.7.2-1.7.5m869 0c.9.2 2.3.2 3 0 .6-.3-.1-.5-1.8-.5-1.6 0-2.2.2-1.2.5m645.5 0c.6.2 1.8.2 2.5 0 .6-.3.1-.5-1.3-.5s-1.9.2-1.2.5m-2023 20c1.2.2 3.2.2 4.5 0 1.2-.2.2-.4-2.3-.4s-3.5.2-2.2.4m-420.4 46.5-1.9 2.3 2.3-1.9c2.1-1.8 2.7-2.6 1.9-2.6-.2 0-1.2 1-2.3 2.2m1795.4 50.5c.7.3 1.6.2 1.9-.1.4-.3-.2-.6-1.3-.5-1.1 0-1.4.3-.6.6m12 0c.7.3 1.6.2 1.9-.1.4-.3-.2-.6-1.3-.5-1.1 0-1.4.3-.6.6m-89.9 33-2.4 2.8 2.8-2.4c2.5-2.3 3.2-3.1 2.4-3.1-.2 0-1.4 1.2-2.8 2.7m-1295.1 35c2.3.2 6.1.2 8.5 0 2.3-.2.4-.4-4.3-.4s-6.6.2-4.2.4m51.5 0c.9.2 2.5.2 3.5 0 .9-.3.1-.5-1.8-.5s-2.7.2-1.7.5m-159 1c1.5.2 3.9.2 5.5 0 1.5-.2.2-.4-2.8-.4s-4.3.2-2.7.4m-701.2 7.9c0 1.1.3 1.4.6.6.3-.7.2-1.6-.1-1.9-.3-.4-.6.2-.5 1.3m693 1c0 1.1.3 1.4.6.6.3-.7.2-1.6-.1-1.9-.3-.4-.6.2-.5 1.3m712.3 24.9c0 9.9.2 13.8.3 8.7.2-5.1.2-13.2 0-18-.1-4.8-.3-.6-.3 9.3m-1614.1-4.5c0 3 .2 4.3.4 2.7.2-1.5.2-3.9 0-5.5-.2-1.5-.4-.2-.4 2.8m2335.5 22.7c33.8.2 88.7.2 122 0 33.4-.1 5.8-.2-61.3-.2s-94.4.1-60.7.2m-2126.7 3.9c0 1.1.3 1.4.6.6.3-.7.2-1.6-.1-1.9-.3-.4-.6.2-.5 1.3m691 5c0 1.1.3 1.4.6.6.3-.7.2-1.6-.1-1.9-.3-.4-.6.2-.5 1.3m1768 20c0 1.1.3 1.4.6.6.3-.7.2-1.6-.1-1.9-.3-.4-.6.2-.5 1.3m-2340.3 23.1c.7.3 1.6.2 1.9-.1.4-.3-.2-.6-1.3-.5-1.1 0-1.4.3-.6.6m55 3c.7.3 1.6.2 1.9-.1.4-.3-.2-.6-1.3-.5-1.1 0-1.4.3-.6.6m23 1c.7.3 1.6.2 1.9-.1.4-.3-.2-.6-1.3-.5-1.1 0-1.4.3-.6.6m26 1c.7.3 1.6.2 1.9-.1.4-.3-.2-.6-1.3-.5-1.1 0-1.4.3-.6.6m-108 21c.7.3 1.6.2 1.9-.1.4-.3-.2-.6-1.3-.5-1.1 0-1.4.3-.6.6m84 5c.7.3 1.6.2 1.9-.1.4-.3-.2-.6-1.3-.5-1.1 0-1.4.3-.6.6m16 1c.7.3 1.6.2 1.9-.1.4-.3-.2-.6-1.3-.5-1.1 0-1.4.3-.6.6m16 1c.7.3 1.6.2 1.9-.1.4-.3-.2-.6-1.3-.5-1.1 0-1.4.3-.6.6m1174.6 33.8c0 11.5.2 16.1.3 10.2.2-5.9.2-15.4 0-21-.1-5.6-.3-.8-.3 10.8m-501 34c0 7.7.2 10.7.3 6.7.2-4 .2-10.3 0-14s-.3-.4-.3 7.3m-352.5-2.8c-1.3 1.6-1.2 1.7.4.4s2.1-2.1 1.3-2.1c-.2 0-1 .8-1.7 1.7m-19 20c-1.3 1.6-1.2 1.7.4.4.9-.7 1.7-1.5 1.7-1.7 0-.8-.8-.3-2.1 1.3M5650 1348c-2.3.7-2.3.8-.3.9 1.2.1 2.5-.4 2.8-.9.3-.6.5-1 .3-.9s-1.4.5-2.8.9m-3116.7 23.7c2.6.2 6.7.2 9 0s.2-.3-4.8-.3c-4.9 0-6.8.1-4.2.3m1062.3 17.2c-.3.5.3.7 1.4.4 1.9-.5 2 .1 2.3 42.1l.2 42.6v-42.7c0-39-.1-42.8-1.7-43.1-.9-.2-1.9.1-2.2.7m587.4 21.3c2.4 2.7 4.5 4.8 4.7 4.8.8 0 0-.9-4.4-5l-4.8-4.5zm-618.1 18.5-3.4 3.8 3.8-3.4c3.4-3.3 4.2-4.1 3.4-4.1-.2 0-1.9 1.7-3.8 3.7m-1028.1 31c.6.2 1.8.2 2.5 0 .6-.3.1-.5-1.3-.5s-1.9.2-1.2.5m9.5 0c.9.2 2.3.2 3 0 .6-.3-.1-.5-1.8-.5-1.6 0-2.2.2-1.2.5m1826.5 26c.6.2 1.8.2 2.5 0 .6-.3.1-.5-1.3-.5s-1.9.2-1.2.5m25 0c.6.2 1.8.2 2.5 0 .6-.3.1-.5-1.3-.5s-1.9.2-1.2.5m1061.5 60c2 .2 5.4.2 7.5 0 2-.2.3-.4-3.8-.4s-5.8.2-3.7.4m-2362.4 55c-1.3 1.6-1.2 1.7.4.4.9-.7 1.7-1.5 1.7-1.7 0-.8-.8-.3-2.1 1.3m-28.1 12c.7.3 1.6.2 1.9-.1.4-.3-.2-.6-1.3-.5-1.1 0-1.4.3-.6.6m-39.5 1c.9.2 2.3.2 3 0 .6-.3-.1-.5-1.8-.5-1.6 0-2.2.2-1.2.5m-512.5 36c.7.3 1.6.2 1.9-.1.4-.3-.2-.6-1.3-.5-1.1 0-1.4.3-.6.6m44 0c1.2.2 3 .2 4 0 .9-.3-.1-.5-2.3-.4-2.2 0-3 .2-1.7.4" />
                                    <path fill-opacity=".7"
                                        d="M2519.8 550.7c1.7.2 4.7.2 6.5 0 1.7-.2.3-.4-3.3-.4s-5 .2-3.2.4m13 0c1.8.2 4.5.2 6 0s0-.4-3.3-.4-4.5.2-2.7.4M2911 682.4c0 .2.8 1 1.8 1.7 1.5 1.3 1.6 1.2.3-.4s-2.1-2.1-2.1-1.3m16 15c0 .2.8 1 1.8 1.7 1.5 1.3 1.6 1.2.3-.4s-2.1-2.1-2.1-1.3m-407.2 140.3c.7.3 1.6.2 1.9-.1.4-.3-.2-.6-1.3-.5-1.1 0-1.4.3-.6.6m48 1c.7.3 1.6.2 1.9-.1.4-.3-.2-.6-1.3-.5-1.1 0-1.4.3-.6.6m56.1 27c-1.3 1.6-1.2 1.7.4.4s2.1-2.1 1.3-2.1c-.2 0-1 .8-1.7 1.7m-16 18c-1.3 1.6-1.2 1.7.4.4.9-.7 1.7-1.5 1.7-1.7 0-.8-.8-.3-2.1 1.3m22 20c-1.3 1.6-1.2 1.7.4.4.9-.7 1.7-1.5 1.7-1.7 0-.8-.8-.3-2.1 1.3m248.4 3c22.5.2 58.9.2 81 0 22.1-.1 3.8-.2-40.8-.2-44.5 0-62.6.1-40.2.2m-267.4 16c-1.3 1.6-1.2 1.7.4.4s2.1-2.1 1.3-2.1c-.2 0-1 .8-1.7 1.7m-107 71c-1.3 1.6-1.2 1.7.4.4.9-.7 1.7-1.5 1.7-1.7 0-.8-.8-.3-2.1 1.3m999.4 13c.9.2 2.3.2 3 0 .6-.3-.1-.5-1.8-.5-1.6 0-2.2.2-1.2.5m-1065.4 53c-1.3 1.6-1.2 1.7.4.4s2.1-2.1 1.3-2.1c-.2 0-1 .8-1.7 1.7m586.4 12c5.3.2 14.1.2 19.5 0 5.3-.1.9-.3-9.8-.3s-15.1.2-9.7.3m-119 1c1.5.2 3.9.2 5.5 0 1.5-.2.2-.4-2.8-.4s-4.3.2-2.7.4m-711.2 4.9c0 1.1.3 1.4.6.6.3-.7.2-1.6-.1-1.9-.3-.4-.6.2-.5 1.3m693 7c0 1.1.3 1.4.6.6.3-.7.2-1.6-.1-1.9-.3-.4-.6.2-.5 1.3m712 3c0 1.1.3 1.4.6.6.3-.7.2-1.6-.1-1.9-.3-.4-.6.2-.5 1.3M2281.4 1108c0 5.8.1 8.1.3 5.2.2-2.8.2-7.6 0-10.5-.2-2.8-.3-.5-.3 5.3m603.7 28.6c0 1.1.3 1.4.6.6.3-.7.2-1.6-.1-1.9-.3-.4-.6.2-.5 1.3m-535.3 42.1c.6.2 1.8.2 2.5 0 .6-.3.1-.5-1.3-.5s-1.9.2-1.2.5m-52.3 25.4c-.4.6-.5 1.2-.2 1.5.2.3.7-.2 1-1.1.7-1.7.1-2-.8-.4m46.3.6c.7.3 1.6.2 1.9-.1.4-.3-.2-.6-1.3-.5-1.1 0-1.4.3-.6.6m2012.9 19c54.6.2 144 .2 198.5 0 54.6-.1 10-.2-99.2-.2s-153.8.1-99.3.2m-952.3 33.5-1.9 2.3 2.3-1.9c1.2-1.1 2.2-2.1 2.2-2.3 0-.8-.8-.2-2.6 1.9m194.8 8.8c0 1.4.2 1.9.5 1.2.2-.6.2-1.8 0-2.5-.3-.6-.5-.1-.5 1.3m-500.8 38.5c0 7.7.2 10.7.3 6.7.2-4 .2-10.3 0-14s-.3-.4-.3 7.3m469.5 31.2c-1.3 1.6-1.2 1.7.4.4s2.1-2.1 1.3-2.1c-.2 0-1 .8-1.7 1.7m-291.9 88.7c0 .2.8 1 1.8 1.7 1.5 1.3 1.6 1.2.3-.4s-2.1-2.1-2.1-1.3m-743.7 35.3c.9.2 2.3.2 3 0 .6-.3-.1-.5-1.8-.5-1.6 0-2.2.2-1.2.5m19 0c.9.2 2.5.2 3.5 0 .9-.3.1-.5-1.8-.5s-2.7.2-1.7.5m1826 26c.9.2 2.5.2 3.5 0 .9-.3.1-.5-1.8-.5s-2.7.2-1.7.5m17.5 0c.7.3 1.6.2 1.9-.1.4-.3-.2-.6-1.3-.5-1.1 0-1.4.3-.6.6m-1504.9 31c-1.3 1.6-1.2 1.7.4.4.9-.7 1.7-1.5 1.7-1.7 0-.8-.8-.3-2.1 1.3m2580.9 29c.7.3 1.6.2 1.9-.1.4-.3-.2-.6-1.3-.5-1.1 0-1.4.3-.6.6m-2448 68c1.2.2 3 .2 4 0 .9-.3-.1-.5-2.3-.4-2.2 0-3 .2-1.7.4m-502 36c1.2.2 3 .2 4 0 .9-.3-.1-.5-2.3-.4-2.2 0-3 .2-1.7.4m34.5 0c.9.2 2.3.2 3 0 .6-.3-.1-.5-1.8-.5-1.6 0-2.2.2-1.2.5" />
                                    <path fill-opacity=".8"
                                        d="M2932.5 703c1 1.1 2 2 2.3 2s-.3-.9-1.3-2-2-2-2.3-2 .3.9 1.3 2m-801.6 21.7c-1.3 1.6-1.2 1.7.4.4s2.1-2.1 1.3-2.1c-.2 0-1 .8-1.7 1.7m426.9 22c.7.3 1.6.2 1.9-.1.4-.3-.2-.6-1.3-.5-1.1 0-1.4.3-.6.6m-242.9 86c-1.3 1.6-1.2 1.7.4.4s2.1-2.1 1.3-2.1c-.2 0-1 .8-1.7 1.7m208.4 5c.9.2 2.3.2 3 0 .6-.3-.1-.5-1.8-.5-1.6 0-2.2.2-1.2.5m22.5 0c1.2.2 3.2.2 4.5 0 1.2-.2.2-.4-2.3-.4s-3.5.2-2.2.4m233.2 2.7c0 .2.8 1 1.8 1.7 1.5 1.3 1.6 1.2.3-.4s-2.1-2.1-2.1-1.3m-484.1 11.3c-1.3 1.6-1.2 1.7.4.4s2.1-2.1 1.3-2.1c-.2 0-1 .8-1.7 1.7m2517.3 47 77.8.3.3 49.5.2 49.5v-99.5h-156zm541.8 0c0 .7 60.4.7 141.5 0 17.1-.1-7.8-.3-55.2-.5-47.5-.1-86.3.1-86.3.5m449 0c77 .7 136 .7 136 0 0-.4-37.2-.6-82.7-.5-45.6.2-69.5.4-53.3.5m-2776.2 7c.7.3 1.6.2 1.9-.1.4-.3-.2-.6-1.3-.5-1.1 0-1.4.3-.6.6m289.1 45c-1.3 1.6-1.2 1.7.4.4s2.1-2.1 1.3-2.1c-.2 0-1 .8-1.7 1.7m868.6 10.5-4 4.3 4.3-4c2.3-2.1 4.2-4 4.2-4.2 0-.8-.9 0-4.5 3.9m-686.2 45.5c.9.2 2.3.2 3 0 .6-.3-.1-.5-1.8-.5-1.6 0-2.2.2-1.2.5m10 0c.9.2 2.3.2 3 0 .6-.3-.1-.5-1.8-.5-1.6 0-2.2.2-1.2.5m1501.4 15c1.8.2 5 .2 7 0 2.1-.2.7-.4-3.2-.4-3.8 0-5.5.2-3.8.4m-544.7 13.8c1.9 1.9 3.6 3.5 3.9 3.5s-1-1.6-2.9-3.5-3.6-3.5-3.9-3.5 1 1.6 2.9 3.5m458.9 18.2-2.4 2.8 2.8-2.4c2.5-2.3 3.2-3.1 2.4-3.1-.2 0-1.4 1.2-2.8 2.7m-2936.8 5.9c0 1.1.3 1.4.6.6.3-.7.2-1.6-.1-1.9-.3-.4-.6.2-.5 1.3m1768 8c0 1.1.3 1.4.6.6.3-.7.2-1.6-.1-1.9-.3-.4-.6.2-.5 1.3m-839.3 5.1c1.8.2 4.5.2 6 0s0-.4-3.3-.4-4.5.2-2.7.4m683.3 11.9c0 1.1.3 1.4.6.6.3-.7.2-1.6-.1-1.9-.3-.4-.6.2-.5 1.3m-712 3c0 1.1.3 1.4.6.6.3-.7.2-1.6-.1-1.9-.3-.4-.6.2-.5 1.3m-81.7 30.4c0 6.3.1 8.9.3 5.7.2-3.1.2-8.3 0-11.5-.2-3.1-.3-.5-.3 5.8m-818.3 27.6c0 1.1.3 1.4.6.6.3-.7.2-1.6-.1-1.9-.3-.4-.6.2-.5 1.3M4890.5 1312c0 89.4.1 125.9.2 81.2.2-44.6.2-117.8 0-162.5-.1-44.6-.2-8.1-.2 81.3m-237.4-153.4c0 1.1.3 1.4.6.6.3-.7.2-1.6-.1-1.9-.3-.4-.6.2-.5 1.3m-2319.3 19.1c.7.3 1.6.2 1.9-.1.4-.3-.2-.6-1.3-.5-1.1 0-1.4.3-.6.6m39 2c.6.2 1.8.2 2.5 0 .6-.3.1-.5-1.3-.5s-1.9.2-1.2.5m23.5 1c.9.2 2.3.2 3 0 .6-.3-.1-.5-1.8-.5-1.6 0-2.2.2-1.2.5m26 1c.9.2 2.5.2 3.5 0 .9-.3.1-.5-1.8-.5s-2.7.2-1.7.5m-95.5 22c.7.3 1.6.2 1.9-.1.4-.3-.2-.6-1.3-.5-1.1 0-1.4.3-.6.6m31 2c.7.3 1.6.2 1.9-.1.4-.3-.2-.6-1.3-.5-1.1 0-1.4.3-.6.6m32 2c.7.3 1.6.2 1.9-.1.4-.3-.2-.6-1.3-.5-1.1 0-1.4.3-.6.6m121 8c.7.3 1.6.2 1.9-.1.4-.3-.2-.6-1.3-.5-1.1 0-1.4.3-.6.6m232.1 62c-1.3 1.6-1.2 1.7.4.4s2.1-2.1 1.3-2.1c-.2 0-1 .8-1.7 1.7m-379.9 26.7c0 .2.8 1 1.8 1.7 1.5 1.3 1.6 1.2.3-.4s-2.1-2.1-2.1-1.3m735.4 27.1c0 7.7.2 10.7.3 6.7.2-4 .2-10.3 0-14s-.3-.4-.3 7.3m1383.5 3.2-2.4 2.8 2.8-2.4c2.5-2.3 3.2-3.1 2.4-3.1-.2 0-1.4 1.2-2.8 2.7m-1981.1 36c.7.3 1.6.2 1.9-.1.4-.3-.2-.6-1.3-.5-1.1 0-1.4.3-.6.6m779.7 58.3c1 1.1 2 2 2.3 2s-.3-.9-1.3-2-2-2-2.3-2 .3.9 1.3 2m-753.2 30.7c.9.2 2.3.2 3 0 .6-.3-.1-.5-1.8-.5-1.6 0-2.2.2-1.2.5m29.5 0c.6.2 1.8.2 2.5 0 .6-.3.1-.5-1.3-.5s-1.9.2-1.2.5m856 23c.7.3 1.6.2 1.9-.1.4-.3-.2-.6-1.3-.5-1.1 0-1.4.3-.6.6m972 3c1.7.2 4.7.2 6.5 0 1.7-.2.3-.4-3.3-.4s-5 .2-3.2.4m1026.7 109.8c0 30.2.1 42.8.2 27.8.2-14.9.2-39.7 0-55-.1-15.3-.2-3.1-.2 27.2m40.3-49.8c.7.3 1.6.2 1.9-.1.4-.3-.2-.6-1.3-.5-1.1 0-1.4.3-.6.6m-2388 67c.7.3 1.6.2 1.9-.1.4-.3-.2-.6-1.3-.5-1.1 0-1.4.3-.6.6m-113 1c.7.3 1.6.2 1.9-.1.4-.3-.2-.6-1.3-.5-1.1 0-1.4.3-.6.6m64 0c1.2.2 3.2.2 4.5 0 1.2-.2.2-.4-2.3-.4s-3.5.2-2.2.4m-434 35c.7.3 1.6.2 1.9-.1.4-.3-.2-.6-1.3-.5-1.1 0-1.4.3-.6.6m-53.5 1c.9.2 2.5.2 3.5 0 .9-.3.1-.5-1.8-.5s-2.7.2-1.7.5m21.5 0c1.2.2 3 .2 4 0 .9-.3-.1-.5-2.3-.4-2.2 0-3 .2-1.7.4" />
                                    <path fill-opacity=".9"
                                        d="M2497.8 551.7c.7.3 1.6.2 1.9-.1.4-.3-.2-.6-1.3-.5-1.1 0-1.4.3-.6.6m65.5 0c.9.2 2.3.2 3 0 .6-.3-.1-.5-1.8-.5-1.6 0-2.2.2-1.2.5m18 1c.9.2 2.3.2 3 0 .6-.3-.1-.5-1.8-.5-1.6 0-2.2.2-1.2.5m24.5 2c.7.3 1.6.2 1.9-.1.4-.3-.2-.6-1.3-.5-1.1 0-1.4.3-.6.6m-433.9 131c-1.3 1.6-1.2 1.7.4.4s2.1-2.1 1.3-2.1c-.2 0-1 .8-1.7 1.7m-28.5 26.5-2.9 3.3 3.3-2.9c1.7-1.7 3.2-3.1 3.2-3.3 0-.8-.8-.1-3.6 2.9m-8.5 8.5-2.4 2.8 2.8-2.4c1.5-1.4 2.7-2.6 2.7-2.8 0-.8-.8-.1-3.1 2.4m817.1 2.7c0 .2.8 1 1.8 1.7 1.5 1.3 1.6 1.2.3-.4s-2.1-2.1-2.1-1.3m-829.1 10.3-2.4 2.8 2.8-2.4c2.5-2.3 3.2-3.1 2.4-3.1-.2 0-1.4 1.2-2.8 2.7m-6 7c-1.3 1.6-1.2 1.7.4.4s2.1-2.1 1.3-2.1c-.2 0-1 .8-1.7 1.7m398.9 6c.7.3 1.6.2 1.9-.1.4-.3-.2-.6-1.3-.5-1.1 0-1.4.3-.6.6m45 0c.7.3 1.6.2 1.9-.1.4-.3-.2-.6-1.3-.5-1.1 0-1.4.3-.6.6m448.8 55.6c.3 1 .9 1.5 1.2 1.2s0-1.1-.7-1.8c-1-.9-1.1-.8-.5.6m-675.7 14.4c-1.3 1.6-1.2 1.7.4.4.9-.7 1.7-1.5 1.7-1.7 0-.8-.8-.3-2.1 1.3m683.1-.8c0 .6.4 1.3 1 1.6s.7-.1.4-.9c-.7-1.8-1.4-2.1-1.4-.7m-955.4 1.8c-.6 1.4-.5 1.5.5.6.7-.7 1-1.5.7-1.8s-.9.2-1.2 1.2m695.4 2.7c0 .2.8 1 1.8 1.7 1.5 1.3 1.6 1.2.3-.4s-2.1-2.1-2.1-1.3m-225.7 17.3c2.6.2 6.7.2 9 0s.2-.3-4.8-.3c-4.9 0-6.8.1-4.2.3m244.7-.3c0 .2.8 1 1.8 1.7 1.5 1.3 1.6 1.2.3-.4s-2.1-2.1-2.1-1.3m-469.1 2.3c-1.3 1.6-1.2 1.7.4.4s2.1-2.1 1.3-2.1c-.2 0-1 .8-1.7 1.7m203.9-1c.7.3 1.6.2 1.9-.1.4-.3-.2-.6-1.3-.5-1.1 0-1.4.3-.6.6m53 0c.7.3 1.6.2 1.9-.1.4-.3-.2-.6-1.3-.5-1.1 0-1.4.3-.6.6m229.2 15.6c0 .2 1.5 1.6 3.3 3.3l3.2 2.9-2.9-3.3c-2.8-3-3.6-3.7-3.6-2.9m-503.1 2.4c-1.3 1.6-1.2 1.7.4.4.9-.7 1.7-1.5 1.7-1.7 0-.8-.8-.3-2.1 1.3m315 30c-1.3 1.6-1.2 1.7.4.4.9-.7 1.7-1.5 1.7-1.7 0-.8-.8-.3-2.1 1.3m95.1 4.7c0 .2.8 1 1.8 1.7 1.5 1.3 1.6 1.2.3-.4s-2.1-2.1-2.1-1.3m132 8c0 .2.8 1 1.8 1.7 1.5 1.3 1.6 1.2.3-.4s-2.1-2.1-2.1-1.3m190.8 6.3c.6.2 1.8.2 2.5 0 .6-.3.1-.5-1.3-.5s-1.9.2-1.2.5m-443.9 9-3.4 3.8 3.8-3.4c2-1.9 3.7-3.6 3.7-3.8 0-.8-.8 0-4.1 3.4m2355 8-3.4 3.8 3.8-3.4c3.4-3.3 4.2-4.1 3.4-4.1-.2 0-1.9 1.7-3.8 3.7m-2200.9-.3c0 .2.8 1 1.8 1.7 1.5 1.3 1.6 1.2.3-.4s-2.1-2.1-2.1-1.3m-168.1 7.3c-1.3 1.6-1.2 1.7.4.4s2.1-2.1 1.3-2.1c-.2 0-1 .8-1.7 1.7m-4.5 4.5-1.9 2.3 2.3-1.9c2.1-1.8 2.7-2.6 1.9-2.6-.2 0-1.2 1-2.3 2.2m-14 15-2.9 3.3 3.3-2.9c3-2.8 3.7-3.6 2.9-3.6-.2 0-1.6 1.5-3.3 3.2m1150.6-2.8c0 .2.8 1 1.8 1.7 1.5 1.3 1.6 1.2.3-.4s-2.1-2.1-2.1-1.3m498.9 4.3c-1.3 1.6-1.2 1.7.4.4s2.1-2.1 1.3-2.1c-.2 0-1 .8-1.7 1.7m-885 5-3.4 3.8 3.8-3.4c3.4-3.3 4.2-4.1 3.4-4.1-.2 0-1.9 1.7-3.8 3.7m1255.1-3.3c0 .2.8 1 1.8 1.7 1.5 1.3 1.6 1.2.3-.4s-2.1-2.1-2.1-1.3m-856 7c0 .2.8 1 1.8 1.7 1.5 1.3 1.6 1.2.3-.4s-2.1-2.1-2.1-1.3m871.5 8.6c1 1.1 2 2 2.3 2s-.3-.9-1.3-2-2-2-2.3-2 .3.9 1.3 2M2772 977.9c0 .6.4 1.3 1 1.6s.7-.1.4-.9c-.7-1.8-1.4-2.1-1.4-.7m-774.9 8.7c0 1.1.3 1.4.6.6.3-.7.2-1.6-.1-1.9-.3-.4-.6.2-.5 1.3m546.9 3.9c-.7.9-1.1 1.7-.9 2 .3.2 1-.5 1.7-1.5 1.4-2.4 1-2.6-.8-.5m-338.9 18.1c0 1.1.3 1.4.6.6.3-.7.2-1.6-.1-1.9-.3-.4-.6.2-.5 1.3m280.3 3.6-1.9 2.3 2.3-1.9c2.1-1.8 2.7-2.6 1.9-2.6-.2 0-1.2 1-2.3 2.2m-75.8 2.1c.3 1 .9 1.5 1.2 1.2s0-1.1-.7-1.8c-1-.9-1.1-.8-.5.6m-417.4 1.7c0 1.4.2 1.9.5 1.2.2-.6.2-1.8 0-2.5-.3-.6-.5-.1-.5 1.3m484.8 4.5c-2.4 2.5-4.2 4.5-3.9 4.5s2.5-2 4.9-4.5 4.2-4.5 3.9-4.5-2.5 2-4.9 4.5m2543.8 1.2c.7.3 1.6.2 1.9-.1.4-.3-.2-.6-1.3-.5-1.1 0-1.4.3-.6.6m-2550.9 6c-1.3 1.6-1.2 1.7.4.4.9-.7 1.7-1.5 1.7-1.7 0-.8-.8-.3-2.1 1.3m-479.7 1.8c0 1.6.2 2.2.5 1.2.2-.9.2-2.3 0-3-.3-.6-.5.1-.5 1.8m1587.3 1.5c2.1 2.2 4.1 4 4.4 4s-1.3-1.8-3.4-4-4.1-4-4.4-4 1.3 1.8 3.4 4m881.5-1.6c0 .2.8 1 1.8 1.7 1.5 1.3 1.6 1.2.3-.4s-2.1-2.1-2.1-1.3m-1036.6 4.8-2.9 3.3 3.3-2.9c3-2.8 3.7-3.6 2.9-3.6-.2 0-1.6 1.5-3.3 3.2m-629.3-.6c0 1.1.3 1.4.6.6.3-.7.2-1.6-.1-1.9-.3-.4-.6.2-.5 1.3m-502 1c0 1.1.3 1.4.6.6.3-.7.2-1.6-.1-1.9-.3-.4-.6.2-.5 1.3m-92.9 7.9c0 1.6.2 2.2.5 1.2.2-.9.2-2.3 0-3-.3-.6-.5.1-.5 1.8m2729.7 7.2c-1.3 1.6-1.2 1.7.4.4s2.1-2.1 1.3-2.1c-.2 0-1 .8-1.7 1.7m-2731.8 4.9c0 1.1.3 1.4.6.6.3-.7.2-1.6-.1-1.9-.3-.4-.6.2-.5 1.3m446.7 2.1c.7.3 1.6.2 1.9-.1.4-.3-.2-.6-1.3-.5-1.1 0-1.4.3-.6.6m2277.1 1c-1.3 1.6-1.2 1.7.4.4s2.1-2.1 1.3-2.1c-.2 0-1 .8-1.7 1.7m-2119.7 2.3c0 1.4.2 1.9.5 1.2.2-.6.2-1.8 0-2.5-.3-.6-.5-.1-.5 1.3m-813 3.5c0 1.6.2 2.2.5 1.2.2-.9.2-2.3 0-3-.3-.6-.5.1-.5 1.8m297 6c0 1.6.2 2.2.5 1.2.2-.9.2-2.3 0-3-.3-.6-.5.1-.5 1.8m358.9.1c0 1.1.3 1.4.6.6.3-.7.2-1.6-.1-1.9-.3-.4-.6.2-.5 1.3m288.2 3.1c4.2.2 11.2.2 15.5 0 4.2-.1.7-.3-7.8-.3s-12 .2-7.7.3m139.5 0c.6.2 1.8.2 2.5 0 .6-.3.1-.5-1.3-.5s-1.9.2-1.2.5m26.6 35.8c0 12.6.2 17.7.3 11.2.2-6.5.2-16.8 0-23-.1-6.2-.3-.9-.3 11.8m-449.2-10c0 1.6.2 2.2.5 1.2.2-.9.2-2.3 0-3-.3-.6-.5.1-.5 1.8m238.2 18c0 6 .1 8.4.3 5.2s.2-8.1 0-11-.3-.3-.3 5.8m-231.3 18.1c0 1.1.3 1.4.6.6.3-.7.2-1.6-.1-1.9-.3-.4-.6.2-.5 1.3m-461 1c0 1.1.3 1.4.6.6.3-.7.2-1.6-.1-1.9-.3-.4-.6.2-.5 1.3m-207 7c0 1.1.3 1.4.6.6.3-.7.2-1.6-.1-1.9-.3-.4-.6.2-.5 1.3m297.1 3.9c0 1.6.2 2.2.5 1.2.2-.9.2-2.3 0-3-.3-.6-.5.1-.5 1.8m2606 1.5c0 1.4.2 1.9.5 1.2.2-.6.2-1.8 0-2.5-.3-.6-.5-.1-.5 1.3m-2090.1 15.6c0 1.1.3 1.4.6.6.3-.7.2-1.6-.1-1.9-.3-.4-.6.2-.5 1.3m-601.9 3.4c0 1.4.2 1.9.5 1.2.2-.6.2-1.8 0-2.5-.3-.6-.5-.1-.5 1.3m464 4c0 1.4.2 1.9.5 1.2.2-.6.2-1.8 0-2.5-.3-.6-.5-.1-.5 1.3m-672 3c0 1.4.2 1.9.5 1.2.2-.6.2-1.8 0-2.5-.3-.6-.5-.1-.5 1.3m313.6 1.7c.7.3 1.6.2 1.9-.1.4-.3-.2-.6-1.3-.5-1.1 0-1.4.3-.6.6m15 1c.6.2 1.8.2 2.5 0 .6-.3.1-.5-1.3-.5s-1.9.2-1.2.5m18 1c.6.2 1.8.2 2.5 0 .6-.3.1-.5-1.3-.5s-1.9.2-1.2.5m19 1c.6.2 1.8.2 2.5 0 .6-.3.1-.5-1.3-.5s-1.9.2-1.2.5m21.5 1c.9.2 2.3.2 3 0 .6-.3-.1-.5-1.8-.5-1.6 0-2.2.2-1.2.5m24 1c.9.2 2.3.2 3 0 .6-.3-.1-.5-1.8-.5-1.6 0-2.2.2-1.2.5m27.5 1c1.2.2 3.2.2 4.5 0 1.2-.2.2-.4-2.3-.4s-3.5.2-2.2.4m-436.7 5.9c0 1.1.3 1.4.6.6.3-.7.2-1.6-.1-1.9-.3-.4-.6.2-.5 1.3m1288.8 6.1c-1.3 1.6-1.2 1.7.4.4s2.1-2.1 1.3-2.1c-.2 0-1 .8-1.7 1.7m-641.7 1.3c0 1.4.2 1.9.5 1.2.2-.6.2-1.8 0-2.5-.3-.6-.5-.1-.5 1.3m240 2c0 1.4.2 1.9.5 1.2.2-.6.2-1.8 0-2.5-.3-.6-.5-.1-.5 1.3m-674.1 3.6c0 1.1.3 1.4.6.6.3-.7.2-1.6-.1-1.9-.3-.4-.6.2-.5 1.3m117.7 3.1c.6.2 1.8.2 2.5 0 .6-.3.1-.5-1.3-.5s-1.9.2-1.2.5m346.3.9c0 1.1.3 1.4.6.6.3-.7.2-1.6-.1-1.9-.3-.4-.6.2-.5 1.3m-330.3.1c.6.2 1.8.2 2.5 0 .6-.3.1-.5-1.3-.5s-1.9.2-1.2.5m15 1c.6.2 1.8.2 2.5 0 .6-.3.1-.5-1.3-.5s-1.9.2-1.2.5m16 1c.6.2 1.8.2 2.5 0 .6-.3.1-.5-1.3-.5s-1.9.2-1.2.5m16 1c.6.2 1.8.2 2.5 0 .6-.3.1-.5-1.3-.5s-1.9.2-1.2.5m16 1c.6.2 1.8.2 2.5 0 .6-.3.1-.5-1.3-.5s-1.9.2-1.2.5m17 1c.7.3 1.6.2 1.9-.1.4-.3-.2-.6-1.3-.5-1.1 0-1.4.3-.6.6m15 1c.6.2 1.8.2 2.5 0 .6-.3.1-.5-1.3-.5s-1.9.2-1.2.5m15 1c.6.2 1.8.2 2.5 0 .6-.3.1-.5-1.3-.5s-1.9.2-1.2.5m15 1c.6.2 1.8.2 2.5 0 .6-.3.1-.5-1.3-.5s-1.9.2-1.2.5m-466.7 2.9c0 1.1.3 1.4.6.6.3-.7.2-1.6-.1-1.9-.3-.4-.6.2-.5 1.3m496.7-.9c.6.2 1.8.2 2.5 0 .6-.3.1-.5-1.3-.5s-1.9.2-1.2.5m28 2c.6.2 1.8.2 2.5 0 .6-.3.1-.5-1.3-.5s-1.9.2-1.2.5m24 2c.7.3 1.6.2 1.9-.1.4-.3-.2-.6-1.3-.5-1.1 0-1.4.3-.6.6m17 2c.7.3 1.6.2 1.9-.1.4-.3-.2-.6-1.3-.5-1.1 0-1.4.3-.6.6m-1.9 7c-1.3 1.6-1.2 1.7.4.4s2.1-2.1 1.3-2.1c-.2 0-1 .8-1.7 1.7m32 0c-1.3 1.6-1.2 1.7.4.4s2.1-2.1 1.3-2.1c-.2 0-1 .8-1.7 1.7m53.2 1.9c0 1.1.3 1.4.6.6.3-.7.2-1.6-.1-1.9-.3-.4-.6.2-.5 1.3m-90.2 4.1c-1.3 1.6-1.2 1.7.4.4.9-.7 1.7-1.5 1.7-1.7 0-.8-.8-.3-2.1 1.3m23.1 11.8c-.7.9-1.1 1.7-.9 2 .3.2 1-.5 1.7-1.5 1.4-2.4 1-2.6-.8-.5m170.9 24.2c-1.3 1.6-1.2 1.7.4.4.9-.7 1.7-1.5 1.7-1.7 0-.8-.8-.3-2.1 1.3m-66.8 1.9c0 1.1.3 1.4.6.6.3-.7.2-1.6-.1-1.9-.3-.4-.6.2-.5 1.3m-343.1 8.8c0 .2.8 1 1.8 1.7 1.5 1.3 1.6 1.2.3-.4s-2.1-2.1-2.1-1.3m9 10.1c1.3 1.4 2.6 2.5 2.8 2.5.3 0-.5-1.1-1.8-2.5s-2.6-2.5-2.8-2.5c-.3 0 .5 1.1 1.8 2.5m311.2 10.5c0 1.4.2 1.9.5 1.2.2-.6.2-1.8 0-2.5-.3-.6-.5-.1-.5 1.3m-300.2.4c0 .2.8 1 1.8 1.7 1.5 1.3 1.6 1.2.3-.4s-2.1-2.1-2.1-1.3m476.1 2.9c-1.3 2.1-1.2 2.1.5.5 1-1 1.6-2 1.3-2.2-.3-.3-1.1.5-1.8 1.7m-125.7 5.9-1.9 2.3 2.3-1.9c1.2-1.1 2.2-2.1 2.2-2.3 0-.8-.8-.2-2.6 1.9m-219.5 4.5c-1.3 1.6-1.2 1.7.4.4.9-.7 1.7-1.5 1.7-1.7 0-.8-.8-.3-2.1 1.3m30 8c-1.3 1.6-1.2 1.7.4.4.9-.7 1.7-1.5 1.7-1.7 0-.8-.8-.3-2.1 1.3m301 2c-1.3 1.6-1.2 1.7.4.4s2.1-2.1 1.3-2.1c-.2 0-1 .8-1.7 1.7m-555.9 2.7c0 .2.8 1 1.8 1.7 1.5 1.3 1.6 1.2.3-.4s-2.1-2.1-2.1-1.3m2220.4 2.8-1.9 2.3 2.3-1.9c2.1-1.8 2.7-2.6 1.9-2.6-.2 0-1.2 1-2.3 2.2m-1671.5 3.5c-1.3 1.6-1.2 1.7.4.4.9-.7 1.7-1.5 1.7-1.7 0-.8-.8-.3-2.1 1.3m1481.6.3c1 1.1 2 2 2.3 2s-.3-.9-1.3-2-2-2-2.3-2 .3.9 1.3 2m181.4 4.7c-1.3 1.6-1.2 1.7.4.4s2.1-2.1 1.3-2.1c-.2 0-1 .8-1.7 1.7m-2007.8 1.6c-1.3 2.1-1.2 2.1.5.5 1-1 1.6-2 1.3-2.2-.3-.3-1.1.5-1.8 1.7m1093.8-.6c-1.3 1.6-1.2 1.7.4.4.9-.7 1.7-1.5 1.7-1.7 0-.8-.8-.3-2.1 1.3m-159.4 5.3c1 1.1 2 2 2.3 2s-.3-.9-1.3-2-2-2-2.3-2 .3.9 1.3 2m-1124.5-.6c0 .2.8 1 1.8 1.7 1.5 1.3 1.6 1.2.3-.4s-2.1-2.1-2.1-1.3m522.4 3.8-1.9 2.3 2.3-1.9c1.2-1.1 2.2-2.1 2.2-2.3 0-.8-.8-.2-2.6 1.9m-344.5 6.5c-1.3 1.6-1.2 1.7.4.4.9-.7 1.7-1.5 1.7-1.7 0-.8-.8-.3-2.1 1.3m321.5 16.5-1.9 2.3 2.3-1.9c2.1-1.8 2.7-2.6 1.9-2.6-.2 0-1.2 1-2.3 2.2m-275.1-.5c.9.2 2.3.2 3 0 .6-.3-.1-.5-1.8-.5-1.6 0-2.2.2-1.2.5m1668.7 28.7c0 .2.8 1 1.8 1.7 1.5 1.3 1.6 1.2.3-.4s-2.1-2.1-2.1-1.3m419.4 6.8-2.9 3.3 3.3-2.9c1.7-1.7 3.2-3.1 3.2-3.3 0-.8-.8-.1-3.6 2.9m-10 10-2.9 3.3 3.3-2.9c1.7-1.7 3.2-3.1 3.2-3.3 0-.8-.8-.1-3.6 2.9m-390.4 2.2c0 .2.8 1 1.8 1.7 1.5 1.3 1.6 1.2.3-.4s-2.1-2.1-2.1-1.3m-636.1 18.3c-1.3 1.6-1.2 1.7.4.4.9-.7 1.7-1.5 1.7-1.7 0-.8-.8-.3-2.1 1.3m-970.1 21c.7.3 1.6.2 1.9-.1.4-.3-.2-.6-1.3-.5-1.1 0-1.4.3-.6.6m-63 2c.6.2 1.8.2 2.5 0 .6-.3.1-.5-1.3-.5s-1.9.2-1.2.5m38 0c.6.2 1.8.2 2.5 0 .6-.3.1-.5-1.3-.5s-1.9.2-1.2.5m-444.8 5.7c0 .2.8 1 1.8 1.7 1.5 1.3 1.6 1.2.3-.4s-2.1-2.1-2.1-1.3m9 10c0 .2.8 1 1.8 1.7 1.5 1.3 1.6 1.2.3-.4s-2.1-2.1-2.1-1.3m776.5 29.8-4 4.3 4.3-4c3.9-3.6 4.7-4.5 3.9-4.5-.2 0-2.1 1.9-4.2 4.2m-740 5.8c1 1.1 2 2 2.3 2s-.3-.9-1.3-2-2-2-2.3-2 .3.9 1.3 2m766.9 42c0 19 .2 26.7.3 17.2.2-9.4.2-25 0-34.5-.1-9.4-.3-1.7-.3 17.3m-49.5-26.3c-1.3 1.6-1.2 1.7.4.4s2.1-2.1 1.3-2.1c-.2 0-1 .8-1.7 1.7m-16 14c-1.3 1.6-1.2 1.7.4.4.9-.7 1.7-1.5 1.7-1.7 0-.8-.8-.3-2.1 1.3m2817.5 54.5-1.9 2.3 2.3-1.9c1.2-1.1 2.2-2.1 2.2-2.3 0-.8-.8-.2-2.6 1.9m-13.5 13.5c-1.3 1.6-1.2 1.7.4.4s2.1-2.1 1.3-2.1c-.2 0-1 .8-1.7 1.7m-2608.6 4c.9.2 2.5.2 3.5 0 .9-.3.1-.5-1.8-.5s-2.7.2-1.7.5m-104 1c.9.2 2.3.2 3 0 .6-.3-.1-.5-1.8-.5-1.6 0-2.2.2-1.2.5m47.5 0c2.3.2 5.9.2 8 0 2-.2.1-.4-4.3-.4s-6.1.2-3.7.4m-534 32c.7.3 1.6.2 1.9-.1.4-.3-.2-.6-1.3-.5-1.1 0-1.4.3-.6.6m20 2c.7.3 1.6.2 1.9-.1.4-.3-.2-.6-1.3-.5-1.1 0-1.4.3-.6.6m105 0c.6.2 1.8.2 2.5 0 .6-.3.1-.5-1.3-.5s-1.9.2-1.2.5m-90.5 1c.9.2 2.3.2 3 0 .6-.3-.1-.5-1.8-.5-1.6 0-2.2.2-1.2.5m74.5 0c.6.2 1.8.2 2.5 0 .6-.3.1-.5-1.3-.5s-1.9.2-1.2.5m-41 1c2.3.2 5.9.2 8 0 2-.2.1-.4-4.3-.4s-6.1.2-3.7.4" />
                                    <g stroke-width="0">
                                        <path
                                            d="M2487.2 552.6c-57 5.6-118.2 21.1-169.2 42.8-14.2 6.1-44.3 20.9-57.5 28.3-20.9 11.8-60.8 38.8-72.1 48.8-.7.5-3.1 2.6-5.5 4.5-25.6 20.6-54.6 49.8-76.9 77.5-3.6 4.4-6.8 8.1-7.2 8.3-.5.2-.8 1-.8 1.7s-.4 1.5-.9 1.7c-.9.3-27.1 37.3-27.1 38.3 0 .2-1.6 2.9-3.5 5.9s-3.5 5.8-3.5 6.1c0 .4-1 2.1-2.2 3.8-2.5 3.5-6.6 10.7-10.1 17.7-1.2 2.5-2.4 4.7-2.7 5-.8.8-11.8 23.7-16.5 34.5-4.1 9.3-5.7 13.2-10.3 25.5-2.8 7.4-5.6 15.3-6.2 17.5-.7 2.2-1.6 4.7-2 5.5-.4.9-1.1 3.1-1.5 5s-1.1 4.1-1.6 5c-.4.8-1.5 4.2-2.3 7.5-.7 3.3-2.7 11.2-4.4 17.5-1.6 6.3-3.4 14.2-4.1 17.5-.6 3.3-1.7 8-2.3 10.5-1.2 5.5-2.2 12-6.2 42.7-5.8 45.5-5.8 96.2 0 140.8 3.1 23.3 4.8 34.2 6.2 40.5.6 2.5 1.5 6.7 2.1 9.5 1.5 7.8 4.1 18.3 6.2 26 1.1 3.8 2.4 8.8 3 11 2.3 8.6 4.3 15 5.1 15.9.4.6.8 1.9.8 3.1 0 1.1.9 4.5 2.1 7.5 1.1 3 2.4 6.6 2.9 8 .8 2.5 2.1 6.2 6.7 18 4 10.3 4.8 12.3 8.1 20 1.2 2.9 8.4 18.5 11.5 25 1.2 2.5 2.5 4.6 3 4.8.4.2.7 1 .7 1.8s1 3.1 2.3 5.2c1.2 2 3.3 5.9 4.7 8.7 1.3 2.7 2.9 5.7 3.6 6.5.6.8 2.4 3.7 3.8 6.5 4.3 8.1 21 33.9 27.4 42.5 18.3 24.4 28.6 36.3 49.7 57.5 10.4 10.5 15.2 14.9 29.9 27.5 1.6 1.4 3.4 3 4 3.6 4.3 4.2 27.9 21.8 40.2 30.1 12.1 8.1 31.3 20 42.8 26.5 69.4 38.9 155.6 64.1 239.4 69.8 19.4 1.3 69.2 1.3 88.2 0 38.2-2.6 69.2-8.2 107-19.1 16.8-4.9 44.4-14.3 52.5-17.8 1.1-.5 4.9-2.1 8.5-3.6q36-15.15 67.5-35.4c7.2-4.5 27.6-18.9 28.5-20 .3-.4 2.5-2.2 5-4.1 10.9-8.3 39-33.5 44.5-39.9 1.1-1.3 6.6-6.3 12.2-11.1 9-7.9 13.7-10.9 14.8-9.8 1.4 1.4 2.8 30.5 3.1 66.8.5 45 .9 49.5 5.2 54.2 4.7 5.1 8 5.3 64.7 5 53-.3 78.9-1.2 85.9-3.3 2.3-.6 6.1-3.2 9.3-6.1l5.3-5.1-.1-101.6c0-55.9-.4-171.3-.8-256.6l-.9-155-5.8-5.3c-3.2-2.9-7.5-5.8-9.8-6.5-3.2-.9-25.6-1.2-98.5-1-51.9.1-94.5.4-94.7.5-.1.2-.8 15-1.4 32.8-1.2 37.8-2.9 58.7-7 87.5-2 14.3-10.7 45.6-15.6 56.2-.7 1.7-1.4 3.4-1.4 3.7 0 2.4-12.1 26.5-21.3 42.6-.8 1.4-2.1 3.6-2.8 5-1.5 2.7-15 21.9-19.9 28.3-7.1 9.3-22.4 26.1-33.5 36.7-5.4 5.2-7.7 7.3-15 13.9-3.7 3.3-26 19.7-33 24.3-68.7 44.8-160.7 64.3-246 52.2-20.8-3-48-9.2-62.5-14.4-25.5-9.1-47-18.5-60.7-26.6-1.7-1.1-6.1-3.6-9.8-5.7-28.3-16.3-58.9-42.6-82.9-71.2-8.9-10.6-25.6-33.5-25.6-35.1 0-.4-.6-1.5-1.4-2.3-.8-.9-2.7-3.9-4.2-6.6-14.2-25.6-20.2-38.2-27.4-58-1.2-3.3-2.8-7.5-3.6-9.3s-1.4-3.9-1.4-4.7c0-.9-.4-2.3-.9-3.3-1-1.9-4.7-14.4-6.2-20.7-4-17.7-6.1-28.7-7.4-39-.9-6.6-2.1-15.6-2.6-20-1.1-7.9-.6-65.1.5-76.5 1.7-16 8.6-51.8 11.2-57.7.8-1.7 1.4-3.8 1.4-4.7 0-.8.4-2.5.9-3.8s1.6-4.6 2.4-7.3c3-9.5 7.7-22.5 10.3-28.2 7.1-15.7 15.1-31.5 20-39.6 3-5 5.4-9.1 5.4-9.3s2.7-4.2 6-8.9 6-9 6-9.5c0-.6.5-1 1-1 .6 0 1-.6 1-1.4s.4-1.6.9-1.8 3.2-3.4 6.2-7.3c9.5-12.5 15.6-19.3 31.4-35.1 18.5-18.6 37-33.5 61.5-49.5 11.7-7.7 36.1-20.6 47.3-25 2.9-1.1 6.6-2.7 8.2-3.5 6.3-2.9 33.6-11.4 47.5-14.8 29.9-7.2 49.4-9.1 84.4-8.3 42.1 1 75 6.4 109.1 18 18.7 6.3 47.8 19.6 56.7 25.8 1.4 1.1 2.8 1.9 3.1 1.9.5 0 22 14.1 22.7 14.9.3.3 4.1 3.3 8.5 6.6 4.4 3.2 11.8 9.3 16.5 13.3 9.9 8.7 36.5 35.4 43 43.2 4.3 5.2 10.4 12.3 12.5 14.6.6.6 2.6 3 4.5 5.4s4 4.8 4.5 5.4c.6.6 2.8 3.2 4.9 5.8l3.8 4.8h89.7c49.3 0 94.8-.5 101.1-1 16.5-1.4 22.9-4 23-9.5 0-2.2-3.9-13.4-6.9-20-1-2.2-2.4-5.8-3.2-8-.7-2.2-1.6-4.5-2-5-.4-.6-2.1-4.4-3.7-8.5-1.7-4.1-6.3-13.9-10.3-21.8-4.1-7.8-8.2-15.9-9.3-18-1-2-4.9-8.8-8.7-15s-6.9-11.5-6.9-11.7c0-.6-22.8-33.1-24.3-34.7-.7-.7-2.3-2.9-3.7-4.8-1.3-1.9-3.1-4.2-3.9-5.1-.9-.9-2.5-2.7-3.5-4-11.6-14.3-40.1-43.6-56.2-57.6-9-7.9-9.9-8.6-13.4-11.3-1.8-1.4-3.8-3-4.4-3.5-.6-.6-2.9-2.4-5.1-4-2.2-1.7-4.2-3.2-4.5-3.5-1.7-1.8-17.5-12.7-31.4-21.4-23.6-15-66.8-35.5-102.7-48.9-58.8-21.9-111.8-32.9-175.6-36.7-23.3-1.4-68.8-1.1-85.1.6M3861 1086.5V1474h156V699h-156zm1278 0V1474h156V699h-156z" />
                                        <path
                                            d="M2507 839c-18.4 2.6-49.4 11.2-64.9 18.2-17.3 7.8-26.6 12.7-45.6 24.1-2.5 1.6-18.3 12.7-21.5 15.2-6.9 5.5-11 10.3-11 13 0 2.4 9.1 26.5 10.9 29 .4.5 1.4 2.6 2.1 4.5 1.7 4.4 9.6 21.7 19.2 42 2.8 5.8 6.6 13.9 8.5 18s3.9 8.2 4.4 9 1.2 2.2 1.5 3 2.8 6.1 5.6 11.8c2.7 5.7 5.3 11.3 5.8 12.5.6 1.2 1.4 2.9 1.9 3.7s2.8 5.7 5.2 10.8 4.6 9.1 5.1 9c2.7-1 97.5-97.4 128.9-131.1 3-3.3 7.2-7.8 9.4-10.1 17.2-18.3 22-23.4 29.2-31.2 4.5-4.9 9.7-10.7 11.7-13 1.9-2.2 5-5.7 6.8-7.6 8.6-9.4 11.8-13.7 11.8-15.9 0-4.1-19.1-9.4-48-13.5-13.3-1.8-66.6-2.8-77-1.4m97.6 91.1c-33.3 33.4-60.6 61.2-60.6 61.7s2.1 1.7 4.8 2.7c2.6.9 7.6 2.8 11.2 4.2 21.8 8.5 130.3 42.1 208.5 64.7 25.2 7.2 32.4 9 33.1 8.3 1.3-1.3-5.7-34.2-7.7-36.1-.5-.6-.9-1.9-.9-3 0-1.2-1.1-5.3-2.5-9.1-5.7-16.5-7.2-20.5-7.8-21.2-.4-.3-.7-1.2-.7-1.9 0-1.5-2.9-8.3-9.6-22.1-2.4-5.1-4.4-9.5-4.4-9.9s-.6-1.5-1.4-2.3c-.7-.9-2.4-3.6-3.7-6.1-3.5-6.6-13.7-20.8-18.9-26.4-28.4-30.4-51.3-49.9-71.2-60.3l-7.6-4zm877.9-42.5c-32.9 2.6-60 7.8-84.6 16.3-70.2 23.9-117.4 71.8-133.5 135.2-2.4 9.5-5.3 27.7-5.4 33.1v2.8h142.7l1.6-6.8c6.1-25 26.7-45.9 54.2-55.1 14.4-4.8 26.4-6.4 47.5-6.4 15.2 0 20.4.4 28.8 2.2 20.1 4.2 33.1 10.9 44.9 22.8 5.9 6 8.2 9.3 12.2 17.6 7.4 15.2 8.3 20.8 8.9 50.2l.4 25-77.3 4.8c-42.6 2.7-83 5.5-89.9 6.3-57.8 6.7-102.9 22.1-137.4 46.9-43.6 31.3-64.4 75.7-62.3 133 .8 21.6 4.3 39.8 10.7 56.1 16 40.1 42.7 69 82.5 88.9 30.3 15.2 59.8 21.7 98.5 21.8 35.3.2 62.5-5.7 91-19.4 28.7-13.9 51.8-33.6 70.5-60.4 3.5-5 6.9-10.3 7.6-11.8q1.2-2.7 3.6-2.7h2.3v86h156v-199.8c0-129.4-.4-203.9-1.1-211.7-7.3-85-68.6-146.9-166.4-168-22.9-5-39.7-6.6-71.5-6.9-16.2-.2-31.7-.2-34.5 0m117.5 358.1c0 26.1-1.3 38.1-5.3 49.8-9 26.2-27.9 46.8-55.1 60-21.1 10.3-40.7 14.1-67.6 13.2-9.4-.3-19.7-1.3-24-2.2-23.7-5.2-40.8-15.8-51-31.6-5.7-8.8-8.1-17.2-8.7-30-.7-13.9.9-22.8 5.9-33.1 10.5-21.7 35.4-36 70.7-40.4 11.8-1.5 116.8-9 129.4-9.3l5.7-.1zm755.5-358.1c-1.6.2-7.9.9-14 1.5-67.9 6.8-129.1 38.3-170.7 87.9-17.6 21-36.9 54.4-46.6 81-22.6 61.6-27.5 140.8-13.1 211.4 5.5 27 12.9 48.6 24.9 73.2 20.2 41.1 48 73 84.9 97.6 34.3 22.7 71.8 36.1 119.1 42.5 19.4 2.6 74.6 2.6 94 0 36.3-4.9 64.1-13.2 92.9-27.6 59.4-29.9 102.5-82.3 118.5-144.1l3.4-13h-143l-.6 2.2c-.3 1.3-2.5 6.1-4.9 10.8-12.6 24.8-40.4 45.6-71.6 53.5-27.4 6.9-62.3 5.8-87.7-3-34.5-11.8-60.4-38.8-73.3-76.1-5.6-16.1-8.6-32.6-10.1-55.2l-.5-7.2h397.2l-.6-38.3c-.6-39.2-1.8-55.6-5.7-77.4-10.3-57.8-35.9-109-73-146.3-39.3-39.6-90.2-63.5-152-71.6-11.8-1.5-60.2-2.8-67.5-1.8m53.5 117.9c47.1 9.5 79.6 44.2 91.3 97.6 1.4 6.3 2.8 13.8 3.2 16.6l.7 5.3H4259l.6-4.3c5.1-34.3 17.5-62.1 36.5-82.2 18.9-19.9 41.9-31.1 71.9-34.9 6.7-.8 33.6.4 41 1.9m593.7-117c-13.7 2.2-23.2 5.2-35.2 10.9-25.1 12-45 32.4-59 60.5-4.5 9.1-13.5 33.8-13.5 37.3 0 1.2-.8 1.8-2.5 1.8h-2.5V899h-156v575h155.9l.4-171.3c.4-183.8.2-175.8 5.3-196.6 2.8-11.5 9.2-26.3 15.5-36.1 16.3-25.2 41.1-40.7 74.4-46.6 23.8-4.2 65.9-1.1 82.8 6.1 1.6.7 1.7-2.9 1.7-67.8 0-37.7-.4-68.8-.8-69.1-.5-.3-5.3-1.4-10.8-2.6-13.2-2.8-42.9-3.6-55.7-1.5m352.3 11c0 .4 45.5 129.6 101.1 287.3l101.1 286.7-2.7 8.5c-7.1 22.4-13.6 34.1-24.2 44-15.6 14.6-40.5 21.1-75.8 19.6-13.1-.5-20.6-1.3-38.2-4.2l-4.3-.7V1650h180.8l10.4-3.6c60.4-20.9 104-69.3 132.5-147.4 3.8-10.5 202.3-598.6 202.3-599.5 0-.3-37-.5-82.2-.5h-82.3l-60.5 225-60.5 225h-5.1l-59.9-221.8c-32.9-121.9-60.2-223.2-60.7-225l-.9-3.2h-85.4c-47 0-85.5.2-85.5.5m-3016 39.3c-3.4 3.6-15 20-15 21.2 0 .6-.4 1-1 1-.5 0-1 .5-1 1.2 0 .6-1 2.5-2.3 4.2-2.1 2.9-12.5 23.4-15.2 30.1-.7 1.6-1.7 4.1-2.3 5.5-2.5 6-7.3 20.2-9.2 27-.6 2.5-1.8 6.7-2.5 9.5-1.8 6.6-3.1 13.2-4.5 23-.6 4.4-1.8 11.9-2.6 16.8-.9 5.5-1.4 16.4-1.4 29.7 0 20.7.5 26.3 4.6 50 2.8 15.7 2.6 15.3 5.9 16.1 8.3 2.1 164.5 9.2 164.5 7.5 0-.3-.4-1.4-.9-2.4-1.4-2.8-2.9-6.5-3.6-9-.4-1.2-1.1-2.2-1.6-2.2s-.9-.6-.9-1.3c0-.6-2.2-5.7-4.9-11.2-8.3-16.9-14.1-29.4-14.1-30.5 0-.5-.4-1-1-1-.5 0-1-.7-1-1.5s-1.3-4.3-2.9-7.7c-1.5-3.5-3.8-8.6-5.1-11.3-1.2-2.8-3-6.8-4.1-9.1-1-2.2-1.9-4.3-1.9-4.7s-1.6-4.1-3.5-8.3c-1.9-4.1-3.5-7.7-3.5-7.9s-1.6-3.9-3.6-8.2-4-8.7-4.4-9.8c-1-2.2-5.8-12.8-11-24-1.7-3.9-4.5-9.9-6.2-13.5-12.9-28.1-38.3-78.9-40.6-81.2-.4-.3-1.8.6-3.2 2m303 120.2c0 1 .4 4.1.9 6.7s1.5 8.4 2.1 12.8 1.6 9.8 2.2 12 1.5 6.7 2 10c1.8 12 2.7 17.1 4.3 24.5.9 4.1 2 9.7 2.5 12.5.9 5.6 4.1 21.1 6.6 32.5.9 4.1 2 9.7 2.4 12.5.5 2.7 1.6 8.4 2.5 12.5.8 4.1 2 9.7 2.5 12.5.6 2.7 2.1 10.2 3.5 16.5s3.6 17.3 5 24.5c1.4 7.1 3 14.5 3.6 16.2 1 3.1 2 7.9 3.9 18.8 1.2 7.1 7.7 31.6 9.1 34.8.7 1.5 1.7 2.7 2.2 2.7 3.9 0 60.7-57.4 60.7-61.4 0-.3 1-1.6 2.3-3 1.2-1.3 2.9-3.7 3.7-5.3.8-1.5 1.9-3.5 2.6-4.3.9-1.3 6.6-11.5 9.5-17 6.2-12.2 16.9-37.9 16.9-40.7 0-.7.6-2.7 1.4-4.5 2.8-6.7 8.1-29.6 9.5-41.4.6-5 1.1-15.1 1.1-22.5v-13.4l-39.7-13.3c-86.5-28.8-113.7-37.2-120.7-37.2-1.9 0-2.6.5-2.6 2m-14 127.7c-9.4 9.7-18.3 20.1-25.5 29.8-1.6 2.2-3.3 4.2-3.6 4.5-.4.3-3 3.6-6 7.5-2.9 3.8-5.6 7.1-6.1 7.3-.4.2-.8 1-.8 1.8s-.4 1.4-.9 1.4-1.9 1.5-3 3.3c-1.1 1.9-3.1 4.5-4.3 5.9-1.3 1.3-3.7 4.5-5.5 6.9-1.7 2.4-6.9 9.4-11.5 15.5-4.5 6.1-9.2 12.4-10.3 13.9s-2.4 3.2-3 3.9c-.5.6-4.4 5.6-8.5 11.1s-7.8 10.1-8.2 10.3c-.5.2-.8 1-.8 1.7s-.4 1.5-.8 1.7c-.8.3-3.8 4.1-13.1 16.7-1.9 2.5-3.7 4.8-4 5.1-2.8 2.4-19 25.2-21.3 30-1.6 3.4-1.6 3.5.5 4.4 1.2.6 20.4 1 43.7 1 35.4.1 43.2-.2 53-1.7 18.9-3 38.2-9.2 59.5-19.1 17.3-8.1 20-10.8 18.5-18.7-.5-2.4-1.3-7.3-2-10.9-.6-3.6-1.7-9.7-2.5-13.5-.8-3.9-1.9-9.5-2.4-12.5-.6-3-2-10.5-3.2-16.5-1.2-6.1-2.5-12.8-2.9-15-1.3-7.4-9.2-47-10-50.5-1.8-7.8-3.1-14.4-5.8-29.8l-.7-4.4zm-328.3 17c-1.5.4-1.7 1.1-1.1 3.6.7 3.5 11.4 25.9 16.6 34.8 1.8 3.2 4.9 8.4 6.8 11.8s3.8 6.1 4.2 6.1c.5 0 .8.5.8 1.1 0 1.2 8.1 12.8 12.5 17.9 33.1 38.1 63 59.1 109.2 76.6 5.1 1.9 6.4 2.1 7.5 1 2.6-2.6 12.3-14 13.7-16 .8-1.2 1.8-2.3 2.2-2.6.6-.5 8.8-10.4 14.7-17.9 1.5-1.9 4.1-5 5.7-7 1.7-2 4.7-5.6 6.5-8.1 4.9-6.3 6.3-8 8.1-9.9 1.3-1.3 5.9-7.1 10.6-13.1.6-.8 2.7-3.3 4.5-5.6s4.7-5.8 6.3-7.9c1.7-2.1 3.6-4.4 4.3-5.1.6-.7 1.2-1.7 1.2-2.2 0-.6.4-1.2.9-1.4.4-.2 3.7-3.9 7.2-8.3s6.6-8.2 6.9-8.5 1.9-2.3 3.5-4.5 5.4-6.9 8.4-10.5l5.4-6.4-2.8-.7c-6-1.7-40.1-4.5-100-8.4-135.1-8.8-158.8-10.1-163.8-8.8" />
                                    </g>
                                </svg>